<svg width="109" height="109" viewBox="0 0 109 109" fill="none" xmlns="http://www.w3.org/2000/svg">
<path d="M95.3744 58.0879C94.66 65.8188 91.7586 73.1862 87.0098 79.3283C82.261 85.4704 75.8611 90.133 68.5591 92.7705C61.257 95.4081 53.3549 95.9115 45.7772 94.2218C38.1995 92.5322 31.2597 88.7194 25.7699 83.2296C20.28 77.7397 16.4672 70.8 14.7776 63.2223C13.0879 55.6446 13.5913 47.7424 16.2289 40.4403C18.8664 33.1383 23.529 26.7385 29.6711 21.9896C35.8132 17.2408 43.1807 14.3394 50.9115 13.625C46.3853 19.7484 44.2073 27.2929 44.7736 34.8864C45.3399 42.4799 48.6128 49.618 53.9971 55.0023C59.3815 60.3866 66.5195 63.6596 74.113 64.2258C81.7065 64.7921 89.251 62.6141 95.3744 58.0879Z" stroke="#FEFAF9" stroke-width="9.08333" stroke-linecap="round" stroke-linejoin="round"/>
</svg>
